<svg aria-hidden="true" style="position: absolute; width: 0; height: 0; overflow: hidden;" version="1.1" xmlns="http://www.w3.org/2000/svg" xmlns:xlink="http://www.w3.org/1999/xlink">
<defs>
<symbol id="icon-Shopicons_Light_Bunny" viewBox="0 0 32 32">
<path d="M11.963 20.669c0.736 0 1.333-0.597 1.333-1.333s-0.597-1.333-1.333-1.333c-0.736 0-1.333 0.597-1.333 1.333s0.597 1.333 1.333 1.333z"></path>
<path d="M19.963 20.669c0.736 0 1.333-0.597 1.333-1.333s-0.597-1.333-1.333-1.333c-0.736 0-1.333 0.597-1.333 1.333s0.597 1.333 1.333 1.333z"></path>
<path d="M20.643 13.897c1.533-0.489 2.653-2.61 2.653-5.227 0-2.991-1.464-5.333-3.333-5.333s-3.333 2.343-3.333 5.333c0 1.728 0.491 3.237 1.264 4.205-0.623-0.13-1.267-0.205-1.931-0.205s-1.307 0.075-1.931 0.205c0.773-0.969 1.264-2.477 1.264-4.205 0-2.991-1.464-5.333-3.333-5.333s-3.333 2.343-3.333 5.333c0 2.617 1.121 4.737 2.653 5.227-3.194 1.753-5.32 5.097-5.32 8.107 0 4.112 3.832 6.667 10 6.667s10-2.555 10-6.667c0.001-3.009-2.126-6.353-5.32-8.107zM19.963 4.67c0.946 0 2 1.643 2 4s-1.054 4-2 4c-0.946 0-2-1.643-2-4s1.054-4 2-4zM9.963 8.67c0-2.357 1.054-4 2-4s2 1.643 2 4c0 2.357-1.054 4-2 4s-2-1.643-2-4zM16.63 27.323v-3.986h1.333v-1.333h-1.333v-0.003h-1.333v0.003h-1.333v1.333h1.333v3.986c-3.984-0.143-8-1.595-8-5.319 0-3.624 3.866-8 8.667-8s8.667 4.376 8.667 8c0 3.724-4.016 5.176-8 5.319z"></path>
</symbol>
<symbol id="icon-computer-screen-1--screen-device-electronics-monitor-diplay-computer" viewBox="0 0 30 32">
<path stroke-linejoin="round" stroke-linecap="round" stroke-miterlimit="4" stroke-width="2.1333" d="M27.733 5.867h-25.6c-0.589 0-1.067 0.478-1.067 1.067v17.067c0 0.589 0.478 1.067 1.067 1.067h25.6c0.589 0 1.067-0.478 1.067-1.067v-17.067c0-0.589-0.478-1.067-1.067-1.067z"></path>
<path stroke-linejoin="round" stroke-linecap="round" stroke-miterlimit="4" stroke-width="2.1333" d="M12.8 25.067l-2.133 5.333"></path>
<path stroke-linejoin="round" stroke-linecap="round" stroke-miterlimit="4" stroke-width="2.1333" d="M17.067 25.067l2.133 5.333"></path>
<path stroke-linejoin="round" stroke-linecap="round" stroke-miterlimit="4" stroke-width="2.1333" d="M8.533 30.4h12.8"></path>
</symbol>
<symbol id="icon-Shopicons_Light_Couch" viewBox="0 0 32 32">
<path d="M26 12c0-1.838-1.495-3.333-3.333-3.333h-4c-1.094 0-2.059 0.537-2.667 1.354-0.608-0.817-1.573-1.354-2.667-1.354h-4c-1.838 0-3.333 1.495-3.333 3.333v3.333h-2.667v10.667h2.667v3.333h1.333v-3.333h17.333v3.333h1.333v-3.333h2.667v-10.667h-2.667v-3.333zM18.667 10h4c1.103 0 2 0.897 2 2v5.333c0 1.103-0.897 2-2 2h-4c-1.103 0-2-0.897-2-2v-5.333c0-1.103 0.897-2 2-2zM16.017 19.333h-0.034c0.005-0.007 0.012-0.013 0.017-0.021 0.005 0.007 0.011 0.013 0.017 0.021zM7.333 12c0-1.103 0.897-2 2-2h4c1.103 0 2 0.897 2 2v5.333c0 1.103-0.897 2-2 2h-4c-1.103 0-2-0.897-2-2v-5.333zM4.667 16.667h1.333v0.667c0 0.753 0.261 1.441 0.684 2h-2.017v-2.667zM27.333 24.667h-22.667v-4h22.667v4zM27.333 16.667v2.667h-2.017c0.423-0.559 0.684-1.247 0.684-2v-0.667h1.333z"></path>
</symbol>
<symbol id="icon-Shopicons_Light_TShirt" viewBox="0 0 32 32">
<path d="M26.667 4h-7.335c0 0.007 0.002 0.014 0.002 0.021 0 1.841-1.493 3.333-3.333 3.333s-3.333-1.493-3.333-3.333c0-0.007 0.002-0.014 0.002-0.021h-7.335c-1.467 0-2.667 1.2-2.667 2.667v5.333c0 1.467 1.2 2.667 2.667 2.667h1.319v10.667c0 1.467 1.2 2.667 2.667 2.667h13.348c1.467 0 2.667-1.2 2.667-2.667v-10.667h1.333c1.467 0 2.667-1.2 2.667-2.667v-5.333c0-1.467-1.2-2.667-2.667-2.667zM28 12c0 0.735-0.598 1.333-1.333 1.333h-2.667v12c0 0.735-0.598 1.333-1.333 1.333h-13.348c-0.735 0-1.333-0.598-1.333-1.333v-12h-2.652c-0.735 0-1.333-0.598-1.333-1.333v-5.333c0-0.735 0.598-1.333 1.333-1.333h6.188c0.568 1.937 2.361 3.355 4.479 3.355s3.911-1.418 4.479-3.355h6.188c0.735 0 1.333 0.598 1.333 1.333v5.333z"></path>
</symbol>
<symbol id="icon-menu-1" viewBox="0 0 32 32">
<path fill="none" stroke="#fff" style="stroke: var(--color1, #fff)" stroke-linejoin="round" stroke-linecap="round" stroke-miterlimit="4" stroke-width="2" d="M4 16h24"></path>
<path fill="none" stroke="#fff" style="stroke: var(--color1, #fff)" stroke-linejoin="round" stroke-linecap="round" stroke-miterlimit="4" stroke-width="2" d="M4 6.667h24"></path>
<path fill="none" stroke="#fff" style="stroke: var(--color1, #fff)" stroke-linejoin="round" stroke-linecap="round" stroke-miterlimit="4" stroke-width="2" d="M4 25.333h24"></path>
</symbol>
<symbol id="icon-Cart" viewBox="0 0 31 32">
<path fill="none" stroke="#1a1a1a" style="stroke: var(--color2, #1a1a1a)" stroke-linejoin="round" stroke-linecap="round" stroke-miterlimit="4" stroke-width="1.2632" d="M9.544 14.877h-3.579l-2.386 13.123h21.474l-2.386-13.123h-3.579M9.544 14.877v-3.579c0-2.635 2.136-4.772 4.772-4.772v0c2.635 0 4.772 2.137 4.772 4.772v3.579M9.544 14.877h9.544M9.544 14.877v3.579M19.088 14.877v3.579"></path>
<path fill="#2c742f" style="fill: var(--color3, #2c742f)" d="M22.737 0.842c4.418 0 8 3.582 8 8s-3.582 8-8 8c-4.418 0-8-3.582-8-8s3.582-8 8-8z"></path>
<path fill="none" stroke="#fff" style="stroke: var(--color1, #fff)" stroke-linejoin="miter" stroke-linecap="butt" stroke-miterlimit="4" stroke-width="0.8421" d="M22.737 0.842c4.418 0 8 3.582 8 8s-3.582 8-8 8c-4.418 0-8-3.582-8-8s3.582-8 8-8z"></path>
<path fill="#fff" style="fill: var(--color1, #fff)" d="M21.343 10.484c0.539-0.466 0.963-0.848 1.272-1.145 0.314-0.303 0.575-0.618 0.783-0.943s0.312-0.651 0.312-0.977c0-0.337-0.081-0.601-0.244-0.792-0.157-0.191-0.407-0.286-0.749-0.286-0.331 0-0.589 0.107-0.775 0.32-0.18 0.208-0.275 0.488-0.286 0.842h-0.926c0.017-0.64 0.208-1.128 0.573-1.465 0.371-0.342 0.839-0.514 1.406-0.514 0.612 0 1.089 0.168 1.432 0.505 0.348 0.337 0.522 0.786 0.522 1.347 0 0.404-0.104 0.794-0.312 1.171-0.202 0.371-0.446 0.705-0.733 1.002-0.281 0.292-0.64 0.632-1.078 1.019l-0.379 0.337h2.669v0.8h-4.093v-0.699l0.606-0.522z"></path>
</symbol>
<symbol id="icon-Map-Pin" viewBox="0 0 27 32">
<path fill="none" stroke="#666" style="stroke: var(--color4, #666)" stroke-linejoin="round" stroke-linecap="round" stroke-miterlimit="4" stroke-width="1.6" d="M25.6 13.382c0 9.164-12 17.018-12 17.018s-12-7.855-12-17.018c0-3.125 1.264-6.122 3.515-8.331s5.303-3.451 8.485-3.451c3.183 0 6.235 1.241 8.485 3.451s3.515 5.206 3.515 8.331z"></path>
<path fill="none" stroke="#666" style="stroke: var(--color4, #666)" stroke-linejoin="round" stroke-linecap="round" stroke-miterlimit="4" stroke-width="1.6" d="M13.6 17.309c2.209 0 4-1.758 4-3.927s-1.791-3.927-4-3.927c-2.209 0-4 1.758-4 3.927s1.791 3.927 4 3.927z"></path>
</symbol>
<symbol id="icon-price-tags" viewBox="0 0 40 32">
<path d="M38.5 0h-12c-0.825 0-1.977 0.477-2.561 1.061l-14.879 14.879c-0.583 0.583-0.583 1.538 0 2.121l12.879 12.879c0.583 0.583 1.538 0.583 2.121 0l14.879-14.879c0.583-0.583 1.061-1.736 1.061-2.561v-12c0-0.825-0.675-1.5-1.5-1.5zM31 12c-1.657 0-3-1.343-3-3s1.343-3 3-3 3 1.343 3 3-1.343 3-3 3z"></path>
<path d="M4 17l17-17h-2.5c-0.825 0-1.977 0.477-2.561 1.061l-14.879 14.879c-0.583 0.583-0.583 1.538 0 2.121l12.879 12.879c0.583 0.583 1.538 0.583 2.121 0l0.939-0.939-13-13z"></path>
</symbol>
<symbol id="icon-mobile" viewBox="0 0 32 32">
<path d="M23 0h-14c-1.65 0-3 1.35-3 3v26c0 1.65 1.35 3 3 3h14c1.65 0 3-1.35 3-3v-26c0-1.65-1.35-3-3-3zM12 1.5h8v1h-8v-1zM16 30c-1.105 0-2-0.895-2-2s0.895-2 2-2 2 0.895 2 2-0.895 2-2 2zM24 24h-16v-20h16v20z"></path>
</symbol>
</defs>
</svg>
